<svg width="24" height="24" viewBox="0 0 24 24" fill="none" xmlns="http://www.w3.org/2000/svg">
<g opacity="0.3">
<path d="M15.172 6.99998L8.586 13.586C8.39498 13.7705 8.24261 13.9912 8.13779 14.2352C8.03298 14.4792 7.9778 14.7416 7.9755 15.0072C7.97319 15.2727 8.02379 15.5361 8.12435 15.7819C8.22492 16.0277 8.37342 16.251 8.56121 16.4388C8.74899 16.6266 8.9723 16.7751 9.21809 16.8756C9.46388 16.9762 9.72724 17.0268 9.9928 17.0245C10.2584 17.0222 10.5208 16.967 10.7648 16.8622C11.0088 16.7574 11.2295 16.605 11.414 16.414L17.828 9.82798C18.5566 9.07357 18.9598 8.06316 18.9507 7.01438C18.9416 5.96559 18.5209 4.96234 17.7793 4.22071C17.0376 3.47907 16.0344 3.0584 14.9856 3.04928C13.9368 3.04017 12.9264 3.44335 12.172 4.17198L5.757 10.757C4.63168 11.8823 3.99949 13.4085 3.99949 15C3.99949 16.5914 4.63168 18.1177 5.757 19.243C6.88231 20.3683 8.40856 21.0005 10 21.0005C11.5914 21.0005 13.1177 20.3683 14.243 19.243L20.5 13" stroke="white" stroke-width="1.5" stroke-linecap="round" stroke-linejoin="round"/>
</g>
</svg>
