<svg width="40" height="40" viewBox="0 0 40 40" fill="none" xmlns="http://www.w3.org/2000/svg">
<rect width="40" height="40" rx="10" fill="white" fill-opacity="0.03"/>
<path opacity="0.4" d="M29.101 17.5879H27.8979V16.4116C27.8979 15.9094 27.4952 15.5 26.999 15.5C26.5038 15.5 26.1 15.9094 26.1 16.4116V17.5879H24.899C24.4027 17.5879 24 17.9973 24 18.4995C24 19.0016 24.4027 19.4111 24.899 19.4111H26.1V20.5884C26.1 21.0906 26.5038 21.5 26.999 21.5C27.4952 21.5 27.8979 21.0906 27.8979 20.5884V19.4111H29.101C29.5962 19.4111 30 19.0016 30 18.4995C30 17.9973 29.5962 17.5879 29.101 17.5879Z" fill="white"/>
<path d="M17.5 23.0155C13.4542 23.0155 10 23.6623 10 26.2466C10 28.8299 13.4332 29.5 17.5 29.5C21.5448 29.5 25 28.8532 25 26.2689C25 23.6846 21.5668 23.0155 17.5 23.0155Z" fill="white"/>
<path opacity="0.4" d="M17.5 20.5542C20.2546 20.5542 22.4626 18.3177 22.4626 15.5276C22.4626 12.7375 20.2546 10.5 17.5 10.5C14.7454 10.5 12.5374 12.7375 12.5374 15.5276C12.5374 18.3177 14.7454 20.5542 17.5 20.5542Z" fill="white"/>
</svg>
