<svg width="24" height="24" viewBox="0 0 24 24" fill="none" xmlns="http://www.w3.org/2000/svg">
<g id="Iconly/Bulk/Video">
<g id="Video">
<path id="Fill 1" opacity="0.4" d="M21.7612 7.44251C21.3422 7.17855 20.8272 7.1552 20.3882 7.37855L18.9061 8.12677C18.3581 8.40291 18.0181 8.96129 18.0181 9.58261V15.4161C18.0181 16.0374 18.3581 16.5948 18.9061 16.873L20.3872 17.6202C20.5882 17.7237 20.8032 17.7735 21.0182 17.7735C21.2762 17.7735 21.5322 17.7004 21.7612 17.5572C22.1802 17.2943 22.4302 16.8384 22.4302 16.339V8.66179C22.4302 8.1623 22.1802 7.70646 21.7612 7.44251Z" fill="white"/>
<path id="Fill 3" d="M11.9056 20H6.11359C3.69157 20 2.00055 18.3299 2.00055 15.9391V9.06091C2.00055 6.66904 3.69157 5 6.11359 5H11.9056C14.3277 5 16.0187 6.66904 16.0187 9.06091V15.9391C16.0187 18.3299 14.3277 20 11.9056 20Z" fill="white"/>
</g>
</g>
</svg>
